<svg width="31" height="28" viewBox="0 0 31 28" fill="black" xmlns="http://www.w3.org/2000/svg">
<path d="M25.6698 17.3523C28.6147 17.3523 31 19.6974 31 22.5908C31 25.4824 28.6147 27.8275 25.6698 27.8275C22.7265 27.8275 20.3395 25.4824 20.3395 22.5908C20.3395 19.6974 22.7265 17.3523 25.6698 17.3523ZM12.5291 20.3568C13.819 20.3568 14.8661 21.3855 14.8661 22.6529C14.8661 23.9185 13.819 24.9489 12.5291 24.9489H2.33704C1.04711 24.9489 0 23.9185 0 22.6529C0 21.3855 1.04711 20.3568 2.33704 20.3568H12.5291ZM5.33025 0.271973C8.27523 0.271973 10.6605 2.6171 10.6605 5.50874C10.6605 8.40208 8.27523 10.7472 5.33025 10.7472C2.38699 10.7472 0 8.40208 0 5.50874C0 2.6171 2.38699 0.271973 5.33025 0.271973ZM28.6647 3.21438C29.9529 3.21438 31 4.24312 31 5.50874C31 6.77606 29.9529 7.8048 28.6647 7.8048H18.4726C17.1827 7.8048 16.1356 6.77606 16.1356 5.50874C16.1356 4.24312 17.1827 3.21438 18.4726 3.21438H28.6647Z" fill="black"/>
</svg>
